<?xml version="1.0" encoding="UTF-8"?>
<!DOCTYPE svg PUBLIC "-//W3C//DTD SVG 1.1//EN" "http://www.w3.org/Graphics/SVG/1.1/DTD/svg11.dtd">
<svg xmlns="http://www.w3.org/2000/svg" version="1.1" width="800px" height="800px" style="shape-rendering:geometricPrecision; text-rendering:geometricPrecision; image-rendering:optimizeQuality; fill-rule:evenodd; clip-rule:evenodd" xmlns:xlink="http://www.w3.org/1999/xlink">
<g><path style="opacity:0.995" fill="#fdfdfd" d="M 373.5,-0.5 C 390.167,-0.5 406.833,-0.5 423.5,-0.5C 466.117,4.70669 505.45,19.04 541.5,42.5C 548.312,48.0734 555.312,53.4067 562.5,58.5C 564.5,59.8333 566.167,61.5 567.5,63.5C 572.5,69.1667 577.833,74.5 583.5,79.5C 584.5,79.8333 585.167,80.5 585.5,81.5C 586.419,84.0892 588.086,86.0892 590.5,87.5C 592.794,91.1274 595.46,94.4607 598.5,97.5C 598.932,98.7095 599.599,99.7095 600.5,100.5C 601.167,100.5 601.5,100.833 601.5,101.5C 602.124,103.754 603.457,105.421 605.5,106.5C 606.34,108.853 607.674,110.853 609.5,112.5C 609.427,114.027 610.094,115.027 611.5,115.5C 612.079,118.331 613.412,120.664 615.5,122.5C 620.519,132.539 625.519,142.539 630.5,152.5C 635.462,165.386 639.795,178.386 643.5,191.5C 646.983,208.998 649.15,226.664 650,244.5C 650.333,296.5 650.667,348.5 651,400.5C 653.509,403.179 656.342,405.512 659.5,407.5C 660.065,410.808 662.065,412.808 665.5,413.5C 666.339,416.855 668.339,419.188 671.5,420.5C 671.833,420.5 672.167,420.5 672.5,420.5C 673.412,422.595 674.579,424.595 676,426.5C 676.671,427.252 677.504,427.586 678.5,427.5C 678.973,428.906 679.973,429.573 681.5,429.5C 682.801,430.882 683.634,432.548 684,434.5C 684.671,435.252 685.504,435.586 686.5,435.5C 686.833,436.5 687.5,437.167 688.5,437.5C 688.833,437.5 689.167,437.5 689.5,437.5C 689.427,439.027 690.094,440.027 691.5,440.5C 692.422,442.816 694.089,444.483 696.5,445.5C 697.778,445.782 698.778,446.449 699.5,447.5C 699.343,450.344 700.676,452.011 703.5,452.5C 703.833,452.5 704.167,452.5 704.5,452.5C 704.427,454.027 705.094,455.027 706.5,455.5C 706.833,455.5 707.167,455.5 707.5,455.5C 707.088,457.973 708.088,459.306 710.5,459.5C 712.855,460.522 714.522,462.188 715.5,464.5C 715.5,466.5 716.5,467.5 718.5,467.5C 718.973,468.906 719.973,469.573 721.5,469.5C 722.551,470.222 723.218,471.222 723.5,472.5C 723.5,474.5 724.5,475.5 726.5,475.5C 726.833,476.5 727.5,477.167 728.5,477.5C 728.833,477.5 729.167,477.5 729.5,477.5C 729.427,479.027 730.094,480.027 731.5,480.5C 731.5,482.5 732.5,483.5 734.5,483.5C 738.521,487.521 742.521,491.521 746.5,495.5C 746.5,496.833 747.167,497.5 748.5,497.5C 749.877,499.289 750.877,501.289 751.5,503.5C 751.41,506.152 752.076,508.485 753.5,510.5C 753.5,510.833 753.5,511.167 753.5,511.5C 755.923,535.293 754.757,558.959 750,582.5C 749.501,588.157 749.334,593.824 749.5,599.5C 516.667,600.666 283.667,600.833 50.5,600C 49.944,599.617 49.6107,599.117 49.5,598.5C 49.5,565.5 49.5,532.5 49.5,499.5C 49.5,499.167 49.5,498.833 49.5,498.5C 52.6096,496.825 54.9429,494.325 56.5,491C 59.8073,489.126 62.4739,486.459 64.5,483C 65.7659,482.691 66.9326,482.191 68,481.5C 69.3594,477.474 72.026,474.807 76,473.5C 77.3594,469.474 80.026,466.807 84,465.5C 85.2902,461.723 87.7902,459.223 91.5,458C 97,452.5 102.5,447 108,441.5C 109.511,439.138 111.011,436.805 112.5,434.5C 115.828,433.3 118.328,430.967 120,427.5C 121.067,426.809 122.234,426.309 123.5,426C 131.365,417.137 139.532,408.637 148,400.5C 148.333,347.5 148.667,294.5 149,241.5C 154.665,147.609 197.831,77.1093 278.5,30C 308.396,13.8665 340.062,3.69981 373.5,-0.5 Z"/></g>
<g><path style="opacity:0.378" fill="#0f0f0f" d="M 423.5,-0.5 C 435.167,-0.5 446.833,-0.5 458.5,-0.5C 461.714,0.282003 465.048,1.11534 468.5,2C 472.306,4.92264 476.306,7.58931 480.5,10C 502.907,17.2 523.24,28.0334 541.5,42.5C 505.45,19.04 466.117,4.70669 423.5,-0.5 Z"/></g>
<g><path style="opacity:0.094" fill="#161616" d="M 541.5,42.5 C 549.642,46.3058 556.642,51.6392 562.5,58.5C 555.312,53.4067 548.312,48.0734 541.5,42.5 Z"/></g>
<g><path style="opacity:0.039" fill="#3a3a3a" d="M 567.5,63.5 C 573.833,67.8333 579.167,73.1667 583.5,79.5C 577.833,74.5 572.5,69.1667 567.5,63.5 Z"/></g>
<g><path style="opacity:0.18" fill="#383838" d="M 585.5,81.5 C 587.914,82.9108 589.581,84.9108 590.5,87.5C 588.086,86.0892 586.419,84.0892 585.5,81.5 Z"/></g>
<g><path style="opacity:0.089" fill="#202020" d="M 590.5,87.5 C 594.3,89.9626 596.967,93.296 598.5,97.5C 595.46,94.4607 592.794,91.1274 590.5,87.5 Z"/></g>
<g><path style="opacity:0.067" fill="#181818" d="M 598.5,97.5 C 600.048,97.8212 600.715,98.8212 600.5,100.5C 599.599,99.7095 598.932,98.7095 598.5,97.5 Z"/></g>
<g><path style="opacity:0.075" fill="#161616" d="M 601.5,101.5 C 603.531,102.539 604.864,104.205 605.5,106.5C 603.457,105.421 602.124,103.754 601.5,101.5 Z"/></g>
<g><path style="opacity:0.083" fill="#121212" d="M 605.5,106.5 C 607.822,107.802 609.155,109.802 609.5,112.5C 607.674,110.853 606.34,108.853 605.5,106.5 Z"/></g>
<g><path style="opacity:0.133" fill="#111111" d="M 609.5,112.5 C 610.906,112.973 611.573,113.973 611.5,115.5C 610.094,115.027 609.427,114.027 609.5,112.5 Z"/></g>
<g><path style="opacity:0.094" fill="#131313" d="M 611.5,115.5 C 613.669,117.34 615.002,119.674 615.5,122.5C 613.412,120.664 612.079,118.331 611.5,115.5 Z"/></g>
<g><path style="opacity:0.085" fill="#151515" d="M 615.5,122.5 C 617.606,123.566 619.106,125.233 620,127.5C 623.333,134.167 626.667,140.833 630,147.5C 630.494,149.134 630.66,150.801 630.5,152.5C 625.519,142.539 620.519,132.539 615.5,122.5 Z"/></g>
<g><path style="opacity:0.116" fill="#0c0c0c" d="M 630.5,152.5 C 631.79,153.058 632.623,154.058 633,155.5C 638.523,166.887 642.023,178.887 643.5,191.5C 639.795,178.386 635.462,165.386 630.5,152.5 Z"/></g>
<g><path style="opacity:0.111" fill="#030303" d="M 643.5,191.5 C 644.79,192.058 645.623,193.058 646,194.5C 648.852,209.858 651.019,225.358 652.5,241C 651.647,264.129 651.314,287.296 651.5,310.5C 652.318,339.81 652.818,369.143 653,398.5C 654.887,401.814 657.054,404.814 659.5,407.5C 656.342,405.512 653.509,403.179 651,400.5C 650.667,348.5 650.333,296.5 650,244.5C 649.15,226.664 646.983,208.998 643.5,191.5 Z"/></g>
<g><path style="opacity:0.227" fill="#080808" d="M 340.5,-0.5 C 351.5,-0.5 362.5,-0.5 373.5,-0.5C 340.062,3.69981 308.396,13.8665 278.5,30C 197.831,77.1093 154.665,147.609 149,241.5C 148.667,294.5 148.333,347.5 148,400.5C 139.532,408.637 131.365,417.137 123.5,426C 122.234,426.309 121.067,426.809 120,427.5C 118.328,430.967 115.828,433.3 112.5,434.5C 120.516,424.651 129.349,415.651 139,407.5C 141,404.833 143,402.167 145,399.5C 145.949,339.51 147.283,279.51 149,219.5C 164.636,112.871 223.469,42.3708 325.5,8C 328.125,5.00821 331.458,3.34155 335.5,3C 337.584,2.30276 339.251,1.1361 340.5,-0.5 Z"/></g>
<g><path style="opacity:0.104" fill="#1a1a1a" d="M 659.5,407.5 C 661.5,409.5 663.5,411.5 665.5,413.5C 662.065,412.808 660.065,410.808 659.5,407.5 Z"/></g>
<g><path style="opacity:0.11" fill="#212121" d="M 665.5,413.5 C 667.897,415.559 669.897,417.892 671.5,420.5C 668.339,419.188 666.339,416.855 665.5,413.5 Z"/></g>
<g><path style="opacity:0.124" fill="#232323" d="M 672.5,420.5 C 675.208,422.266 677.208,424.599 678.5,427.5C 677.504,427.586 676.671,427.252 676,426.5C 674.579,424.595 673.412,422.595 672.5,420.5 Z"/></g>
<g><path style="opacity:0.008" fill="#262626" d="M 678.5,427.5 C 680.027,427.427 681.027,428.094 681.5,429.5C 679.973,429.573 678.973,428.906 678.5,427.5 Z"/></g>
<g><path style="opacity:0.138" fill="#0b0b0b" d="M 681.5,429.5 C 684.086,430.638 685.753,432.638 686.5,435.5C 685.504,435.586 684.671,435.252 684,434.5C 683.634,432.548 682.801,430.882 681.5,429.5 Z"/></g>
<g><path style="opacity:0.024" fill="#2f2f2f" d="M 686.5,435.5 C 687.833,435.5 688.5,436.167 688.5,437.5C 687.5,437.167 686.833,436.5 686.5,435.5 Z"/></g>
<g><path style="opacity:0.169" fill="#505050" d="M 689.5,437.5 C 690.906,437.973 691.573,438.973 691.5,440.5C 690.094,440.027 689.427,439.027 689.5,437.5 Z"/></g>
<g><path style="opacity:0.067" fill="#1c1c1c" d="M 691.5,440.5 C 692.931,441.082 694.264,441.915 695.5,443C 696.252,443.671 696.586,444.504 696.5,445.5C 694.089,444.483 692.422,442.816 691.5,440.5 Z"/></g>
<g><path style="opacity:0.113" fill="#121212" d="M 699.5,447.5 C 701.207,448.873 702.54,450.539 703.5,452.5C 700.676,452.011 699.343,450.344 699.5,447.5 Z"/></g>
<g><path style="opacity:0.157" fill="#555555" d="M 704.5,452.5 C 705.906,452.973 706.573,453.973 706.5,455.5C 705.094,455.027 704.427,454.027 704.5,452.5 Z"/></g>
<g><path style="opacity:0.138" fill="#141414" d="M 112.5,434.5 C 111.011,436.805 109.511,439.138 108,441.5C 102.5,447 97,452.5 91.5,458C 87.7902,459.223 85.2902,461.723 84,465.5C 80.026,466.807 77.3594,469.474 76,473.5C 72.026,474.807 69.3594,477.474 68,481.5C 66.9326,482.191 65.7659,482.691 64.5,483C 62.4739,486.459 59.8073,489.126 56.5,491C 54.9429,494.325 52.6096,496.825 49.5,498.5C 51.4448,496.03 53.2782,493.363 55,490.5C 73.8049,471.192 92.9716,452.525 112.5,434.5 Z"/></g>
<g><path style="opacity:0.128" fill="#121212" d="M 707.5,455.5 C 708.488,456.795 709.488,458.128 710.5,459.5C 708.088,459.306 707.088,457.973 707.5,455.5 Z"/></g>
<g><path style="opacity:0.135" fill="#121212" d="M 715.5,464.5 C 717.19,464.856 718.19,465.856 718.5,467.5C 716.5,467.5 715.5,466.5 715.5,464.5 Z"/></g>
<g><path style="opacity:0.008" fill="#262626" d="M 718.5,467.5 C 720.027,467.427 721.027,468.094 721.5,469.5C 719.973,469.573 718.973,468.906 718.5,467.5 Z"/></g>
<g><path style="opacity:0.113" fill="#101010" d="M 723.5,472.5 C 725.5,472.5 726.5,473.5 726.5,475.5C 726.5,473.5 725.5,472.5 723.5,472.5 Z"/></g>
<g><path style="opacity:0.016" fill="#2e2e2e" d="M 726.5,475.5 C 727.833,475.5 728.5,476.167 728.5,477.5C 727.5,477.167 726.833,476.5 726.5,475.5 Z"/></g>
<g><path style="opacity:0.169" fill="#505050" d="M 729.5,477.5 C 730.906,477.973 731.573,478.973 731.5,480.5C 730.094,480.027 729.427,479.027 729.5,477.5 Z"/></g>
<g><path style="opacity:0.138" fill="#121212" d="M 731.5,480.5 C 733.144,480.81 734.144,481.81 734.5,483.5C 732.5,483.5 731.5,482.5 731.5,480.5 Z"/></g>
<g><path style="opacity:0.118" fill="#000000" d="M 746.5,495.5 C 747.5,495.833 748.167,496.5 748.5,497.5C 747.167,497.5 746.5,496.833 746.5,495.5 Z"/></g>
<g><path style="opacity:0.229" fill="#000000" d="M 49.5,499.5 C 49.5,532.5 49.5,565.5 49.5,598.5C 48.2995,593.209 47.6328,587.709 47.5,582C 48.1004,554.338 48.7671,526.838 49.5,499.5 Z"/></g>
<g><path style="opacity:0.235" fill="#505050" d="M 751.5,503.5 C 753.163,505.438 753.829,507.772 753.5,510.5C 752.076,508.485 751.41,506.152 751.5,503.5 Z"/></g>
<g><path style="opacity:0.091" fill="#1a1a1a" d="M 753.5,511.5 C 755.068,513.811 755.902,516.478 756,519.5C 756.667,529.5 756.667,539.5 756,549.5C 754.227,563.455 752.894,577.455 752,591.5C 751.721,594.457 750.887,597.123 749.5,599.5C 749.334,593.824 749.501,588.157 750,582.5C 754.757,558.959 755.923,535.293 753.5,511.5 Z"/></g>
<g><path style="opacity:0.175" fill="#000000" d="M 537.5,699.5 C 445.5,699.5 353.5,699.5 261.5,699.5C 349.34,698.818 437.34,698.151 525.5,697.5C 529.74,697.54 533.74,698.206 537.5,699.5 Z"/></g>
<g><path style="opacity:0.969" fill="#fdfdfd" d="M 261.5,699.5 C 353.5,699.5 445.5,699.5 537.5,699.5C 538.756,699.461 539.756,699.961 540.5,701C 539.883,703.277 539.216,705.444 538.5,707.5C 531.014,724.471 521.014,739.804 508.5,753.5C 499.059,762.617 489.059,770.95 478.5,778.5C 470.219,782.809 461.886,786.809 453.5,790.5C 439.354,794.928 425.021,797.928 410.5,799.5C 400.5,799.5 390.5,799.5 380.5,799.5C 374.591,798.17 368.591,796.836 362.5,795.5C 360.095,794.232 357.428,793.565 354.5,793.5C 354.167,793.5 353.833,793.5 353.5,793.5C 351.245,791.62 348.578,790.62 345.5,790.5C 345.167,790.5 344.833,790.5 344.5,790.5C 344.027,789.094 343.027,788.427 341.5,788.5C 338.794,788.312 336.461,787.312 334.5,785.5C 333.486,784.326 332.153,783.66 330.5,783.5C 328.216,783.025 326.216,782.025 324.5,780.5C 324.027,779.094 323.027,778.427 321.5,778.5C 319.205,777.525 317.205,776.192 315.5,774.5C 314.738,772.738 313.404,771.738 311.5,771.5C 310.833,771.5 310.5,771.167 310.5,770.5C 310.027,769.094 309.027,768.427 307.5,768.5C 306.738,766.738 305.404,765.738 303.5,765.5C 303.167,764.5 302.5,763.833 301.5,763.5C 300.833,763.5 300.5,763.167 300.5,762.5C 299.415,760.413 297.749,759.08 295.5,758.5C 294.5,756.833 293.167,755.5 291.5,754.5C 289.183,750.518 286.183,747.185 282.5,744.5C 279.655,739.473 276.321,734.806 272.5,730.5C 271.921,727.669 270.588,725.336 268.5,723.5C 268.573,721.973 267.906,720.973 266.5,720.5C 265.662,720.158 265.328,719.492 265.5,718.5C 265.34,716.847 264.674,715.514 263.5,714.5C 261.364,710.424 260.03,706.09 259.5,701.5C 259.5,700.167 260.167,699.5 261.5,699.5 Z"/></g>
<g><path style="opacity:0.165" fill="#212121" d="M 259.5,701.5 C 260.03,706.09 261.364,710.424 263.5,714.5C 259.478,710.837 258.145,706.504 259.5,701.5 Z"/></g>
<g><path style="opacity:0.192" fill="#262626" d="M 263.5,714.5 C 264.674,715.514 265.34,716.847 265.5,718.5C 263.896,717.713 263.229,716.38 263.5,714.5 Z"/></g>
<g><path style="opacity:0.125" fill="#272727" d="M 266.5,720.5 C 267.906,720.973 268.573,721.973 268.5,723.5C 267.094,723.027 266.427,722.027 266.5,720.5 Z"/></g>
<g><path style="opacity:0.141" fill="#111111" d="M 538.5,707.5 C 538.662,709.527 538.495,711.527 538,713.5C 531.589,725.989 523.922,737.656 515,748.5C 513.223,750.79 511.056,752.457 508.5,753.5C 521.014,739.804 531.014,724.471 538.5,707.5 Z"/></g>
<g><path style="opacity:0.157" fill="#202020" d="M 268.5,723.5 C 270.588,725.336 271.921,727.669 272.5,730.5C 270.331,728.66 268.998,726.326 268.5,723.5 Z"/></g>
<g><path style="opacity:0.1" fill="#1a1a1a" d="M 272.5,730.5 C 276.321,734.806 279.655,739.473 282.5,744.5C 278.188,740.546 274.855,735.88 272.5,730.5 Z"/></g>
<g><path style="opacity:0.016" fill="#333333" d="M 282.5,744.5 C 286.183,747.185 289.183,750.518 291.5,754.5C 287.788,751.789 284.788,748.456 282.5,744.5 Z"/></g>
<g><path style="opacity:0.008" fill="#131313" d="M 291.5,754.5 C 293.167,755.5 294.5,756.833 295.5,758.5C 293.167,758.167 291.833,756.833 291.5,754.5 Z"/></g>
<g><path style="opacity:0.322" fill="#424242" d="M 295.5,758.5 C 297.749,759.08 299.415,760.413 300.5,762.5C 298.251,761.92 296.585,760.587 295.5,758.5 Z"/></g>
<g><path style="opacity:0.016" fill="#121212" d="M 301.5,763.5 C 302.5,763.833 303.167,764.5 303.5,765.5C 302.167,765.5 301.5,764.833 301.5,763.5 Z"/></g>
<g><path style="opacity:0.134" fill="#101010" d="M 508.5,753.5 C 508.631,754.239 508.464,754.906 508,755.5C 499.417,764.933 489.584,772.6 478.5,778.5C 489.059,770.95 499.059,762.617 508.5,753.5 Z"/></g>
<g><path style="opacity:0.227" fill="#585858" d="M 303.5,765.5 C 305.404,765.738 306.738,766.738 307.5,768.5C 305.596,768.262 304.262,767.262 303.5,765.5 Z"/></g>
<g><path style="opacity:0.208" fill="#707070" d="M 307.5,768.5 C 309.027,768.427 310.027,769.094 310.5,770.5C 308.973,770.573 307.973,769.906 307.5,768.5 Z"/></g>
<g><path style="opacity:0.188" fill="#606060" d="M 311.5,771.5 C 313.404,771.738 314.738,772.738 315.5,774.5C 313.596,774.262 312.262,773.262 311.5,771.5 Z"/></g>
<g><path style="opacity:0.165" fill="#2d2d2d" d="M 321.5,778.5 C 323.027,778.427 324.027,779.094 324.5,780.5C 322.973,780.573 321.973,779.906 321.5,778.5 Z"/></g>
<g><path style="opacity:0.165" fill="#101010" d="M 478.5,778.5 C 471.124,784.354 462.79,788.354 453.5,790.5C 461.886,786.809 470.219,782.809 478.5,778.5 Z"/></g>
<g><path style="opacity:0.141" fill="#3c3c3c" d="M 330.5,783.5 C 332.153,783.66 333.486,784.326 334.5,785.5C 332.62,785.771 331.287,785.104 330.5,783.5 Z"/></g>
<g><path style="opacity:0.157" fill="#333333" d="M 341.5,788.5 C 343.027,788.427 344.027,789.094 344.5,790.5C 342.973,790.573 341.973,789.906 341.5,788.5 Z"/></g>
<g><path style="opacity:0.039" fill="#333333" d="M 345.5,790.5 C 348.578,790.62 351.245,791.62 353.5,793.5C 350.351,793.585 347.684,792.585 345.5,790.5 Z"/></g>
<g><path style="opacity:0.349" fill="#6e6e6e" d="M 354.5,793.5 C 357.428,793.565 360.095,794.232 362.5,795.5C 361.833,795.5 361.167,795.5 360.5,795.5C 358.102,795.741 356.102,795.074 354.5,793.5 Z"/></g>
<g><path style="opacity:0.195" fill="#0c0c0c" d="M 360.5,795.5 C 361.167,795.5 361.833,795.5 362.5,795.5C 368.591,796.836 374.591,798.17 380.5,799.5C 375.5,799.5 370.5,799.5 365.5,799.5C 364.016,797.926 362.349,796.593 360.5,795.5 Z"/></g>
<g><path style="opacity:0.157" fill="#212121" d="M 453.5,790.5 C 452.942,791.79 451.942,792.623 450.5,793C 443.076,795.372 435.743,797.538 428.5,799.5C 422.5,799.5 416.5,799.5 410.5,799.5C 425.021,797.928 439.354,794.928 453.5,790.5 Z"/></g>
</svg>
